<svg width="15" height="9" viewBox="0 0 15 9" xmlns="http://www.w3.org/2000/svg">
<path d="M13.3482 6.21484C14.5548 7.38423 14.8061 7.95603 14.8468 8.02633C15.3449 8.89341 14.2945 8.96137 14.2945 8.96137L12.2819 8.99184C12.2819 8.99184 11.8472 9.08089 11.279 8.67078C10.5252 8.13179 9.49512 6.72572 8.94274 6.9085C8.38131 7.09364 8.56015 8.56767 8.56015 8.56767C8.56015 8.56767 8.56468 8.74812 8.4379 8.89341C8.29755 9.04573 8.02588 8.98715 8.02588 8.98715H7.44634C7.44634 8.98715 5.29796 8.99652 3.54574 7.08895C1.63733 5.01031 0.0413201 1.12251 0.0413201 1.12251C0.0413201 1.12251 -0.0560247 0.876452 0.0481117 0.745219C0.168095 0.597581 0.491824 0.599924 0.491824 0.599924H2.64474C2.64474 0.599924 2.84622 0.628046 2.9911 0.740532C3.11335 0.831927 3.179 1.00534 3.179 1.00534C3.179 1.00534 3.43934 1.72947 3.90117 2.56374C4.79991 4.1901 5.21872 4.5463 5.52434 4.37054C5.96805 4.11511 5.83449 2.07161 5.83449 2.07161C5.83449 2.07161 5.84354 1.32874 5.61037 0.998312C5.42926 0.740531 5.09195 0.665541 4.94253 0.64445C4.82029 0.630389 5.0195 0.335114 5.27758 0.203881C5.6647 0.00703036 6.35064 -0.00703036 7.15883 0.00234345C7.78818 0.00937397 8.02588 0 8.02588 0C8.76842 0.187476 8.51714 0.913947 8.51714 2.6481C8.51714 3.20585 8.41979 3.98856 8.80465 4.24634C8.96991 4.36117 9.56303 4.37757 10.5704 2.58483C11.0504 1.73416 11.4284 0.935038 11.4284 0.935038C11.4284 0.935038 11.5099 0.754592 11.6299 0.679602C11.7567 0.599924 11.9242 0.599924 11.9242 0.599924L14.1903 0.611642C14.1903 0.611642 14.8717 0.522591 14.9804 0.845987C15.0959 1.18344 14.702 1.774 13.7783 3.06524C12.257 5.18606 12.0872 4.98921 13.3482 6.21484Z"/>
</svg>
