<svg width="27" height="27" viewBox="0 0 27 27" xmlns="http://www.w3.org/2000/svg">
<path d="M3.89061 21.2727L4.36495 21.4308L4.453 21.1666L4.2748 20.9527L3.89061 21.2727ZM2.38889 25.7778L1.91455 25.6197L1.63529 26.4575L2.49735 26.2659L2.38889 25.7778ZM8.03513 24.5231L8.25401 24.0736L8.09706 23.9972L7.92667 24.035L8.03513 24.5231ZM25.5 13.2778C25.5 19.9052 20.1274 25.2778 13.5 25.2778V26.2778C20.6797 26.2778 26.5 20.4575 26.5 13.2778H25.5ZM13.5 1.27783C20.1274 1.27783 25.5 6.65042 25.5 13.2778H26.5C26.5 6.09813 20.6797 0.277832 13.5 0.277832V1.27783ZM1.5 13.2778C1.5 6.65042 6.87258 1.27783 13.5 1.27783V0.277832C6.3203 0.277832 0.5 6.09813 0.5 13.2778H1.5ZM4.2748 20.9527C2.54195 18.8722 1.5 16.1973 1.5 13.2778H0.5C0.5 16.4397 1.62947 19.3391 3.50641 21.5927L4.2748 20.9527ZM2.86323 25.9359L4.36495 21.4308L3.41627 21.1146L1.91455 25.6197L2.86323 25.9359ZM7.92667 24.035L2.28042 25.2897L2.49735 26.2659L8.1436 25.0112L7.92667 24.035ZM13.5 25.2778C11.6178 25.2778 9.8382 24.8449 8.25401 24.0736L7.81626 24.9727C9.53385 25.8089 11.4629 26.2778 13.5 26.2778V25.2778Z" fill="white"/>
</svg>
