<svg width="15" height="16" viewBox="0 0 15 16" xmlns="http://www.w3.org/2000/svg">
<path fill-rule="evenodd" clip-rule="evenodd" d="M5.73219 2.12214C5.61314 1.55018 5.38275 1.49535 5.17365 1.44729C5.00329 1.40663 4.80721 1.36917 4.61114 1.33171C4.41749 1.29472 4.08301 1.31198 3.75349 1.5791C3.42204 1.84315 2.51536 2.46535 2.21717 4.02627C1.91947 5.58458 2.68664 7.29491 2.79149 7.53409C2.89926 7.77111 4.15605 11.4364 6.90026 13.2782C9.18237 14.8072 9.72817 14.695 10.2755 14.7455C10.8258 14.7938 12.1626 14.3105 12.5487 13.6159C12.9343 12.9239 13.0554 12.2897 13.0082 12.1427C12.9611 11.9957 12.7799 11.8799 12.515 11.6643C12.2526 11.4491 10.9536 10.4082 10.7029 10.2494C10.4541 10.0937 10.2681 10.004 10.0116 10.2824C9.75524 10.5608 9.0546 11.1682 8.84234 11.3468C8.63009 11.5254 8.45566 11.5191 8.19026 11.3061C7.92778 11.0909 7.04515 10.576 6.12842 9.28081C5.41514 8.27338 5.02247 7.12429 4.91144 6.77301C4.79991 6.42434 4.98532 6.2812 5.1634 6.15018C5.32346 6.03466 5.52952 5.83594 5.71259 5.67883C5.89323 5.52124 5.96657 5.39998 6.10621 5.20751C6.24343 5.01458 6.23042 4.82001 6.18822 4.64691C6.14602 4.47381 5.87394 2.79854 5.73219 2.12214Z"/>
</svg>
